<?xml version="1.0" encoding="utf-8"?>
<!-- Generator: Adobe Illustrator 26.0.2, SVG Export Plug-In . SVG Version: 6.00 Build 0)  -->
<svg version="1.1" xmlns="http://www.w3.org/2000/svg" xmlns:xlink="http://www.w3.org/1999/xlink" x="0px" y="0px"
	 viewBox="0 0 1880 1880" style="enable-background:new 0 0 1880 1880;" xml:space="preserve">
<style type="text/css">
	.st0{fill:#FF6400;}
</style>
<g id="Layer_1">
</g>
<g id="Layer_2">
	<polygon class="st0" points="1753.81,772.29 1753.81,825.38 1712.36,797.97 	"/>
	<polygon class="st0" points="1847.72,772.29 1847.72,825.38 1806.27,797.97 	"/>
	<polygon class="st0" points="1662.62,772.29 1662.62,825.38 1621.16,797.97 	"/>
	<polygon class="st0" points="1569.76,772.29 1569.76,825.38 1528.31,797.97 	"/>
	<polygon class="st0" points="1476.91,772.29 1476.91,825.38 1435.46,797.97 	"/>
	<polygon class="st0" points="1381.57,772.29 1381.57,825.38 1340.12,797.97 	"/>
	<polygon class="st0" points="1288.72,772.29 1288.72,825.38 1247.27,797.97 	"/>
	<polygon class="st0" points="1195.04,772.29 1195.04,825.38 1153.59,797.97 	"/>
	<polygon class="st0" points="1100.53,772.29 1100.53,825.38 1059.08,797.97 	"/>
	<polygon class="st0" points="1008.51,772.29 1008.51,825.38 967.05,797.97 	"/>
	<polygon class="st0" points="915.24,772.29 915.24,825.38 873.79,797.97 	"/>
	<polygon class="st0" points="821.97,772.29 821.97,825.38 780.52,797.97 	"/>
	<polygon class="st0" points="728.7,772.29 728.7,825.38 687.25,797.97 	"/>
	<polygon class="st0" points="635.44,772.29 635.44,825.38 593.99,797.97 	"/>
	<polygon class="st0" points="542.75,772.29 542.75,825.38 501.3,797.97 	"/>
	<polygon class="st0" points="449.59,772.29 449.59,825.38 408.14,797.97 	"/>
	<polygon class="st0" points="355.96,772.29 355.96,825.38 314.51,797.97 	"/>
	<polygon class="st0" points="264.22,772.29 264.22,825.38 222.77,797.97 	"/>
	<polygon class="st0" points="169.17,772.29 169.17,825.38 127.72,797.97 	"/>
	<polygon class="st0" points="77.42,772.29 77.42,825.38 35.97,797.97 	"/>
</g>
</svg>
