<?xml version="1.0" encoding="utf-8"?>
<!-- Generator: Adobe Illustrator 25.4.1, SVG Export Plug-In . SVG Version: 6.00 Build 0)  -->
<svg version="1.1" xmlns="http://www.w3.org/2000/svg" xmlns:xlink="http://www.w3.org/1999/xlink" x="0px" y="0px"
	 viewBox="0 0 1880 1880" style="enable-background:new 0 0 1880 1880;" xml:space="preserve">
<style type="text/css">
	.st0{fill:#14385D;}
	.st1{fill:#F5ED54;}
	.st2{fill:#88B447;}
	.st3{fill:#D8792D;}
	.st4{fill:#4CA1D9;}
</style>
<g id="Circle_00000102519419726128471220000002756868633700798642_">
	<circle id="Circle" class="st0" cx="940" cy="940" r="940"/>
</g>
<g id="C_00000114046272059564135190000008248843023564345476_">
	<path id="C" class="st1" d="M677.3,739.82l-94.77,121.85c0,0-33.85-47.39-82.93-41.46s-95.62,38.08-97.31,104.08
		s52.46,108.31,96.47,108.31s72.77-22.85,82.08-38.92l102.62,123.54c0,0-73,74.18-184.7,74.18S226,1120.61,226,922.6
		s158.51-254.77,278.67-254.69C624.83,668,677.3,739.82,677.3,739.82z"/>
</g>
<g id="F_00000128465443570533129500000013091469093618399886_">
	<path id="F" class="st2" d="M889.69,689.05h72.77V575.66h-72.77c0,0-7.62-56.69,31.31-56.69s34.69,10.15,34.69,10.15l10.99-121.85
		c0,0-31.3-9.57-82.07-9.57c-50.77,0-152.46,29.03-152.46,130.57s0,639.64,0,639.64h157.54"/>
</g>
<g id="G_00000067929744421415513760000001339868457899971518_">
	<path id="G" class="st3" d="M1253.55,1029.22c-15.23,9.31-45.69,9.31-45.69,9.31c-63.46,3.38-99-62.62-98.16-115.93
		s45.69-100.7,102.39-101.54c56.69-0.85,81.23,42.31,81.23,42.31l95.62-123.54c0,0-70.23-71.91-181.93-71.91
		s-276.99,70.96-276.99,265.21s186.45,276.09,281.22,265.21c94.77-10.88,188.99-54.04,188.99-54.04V909.91H1252.7L1253.55,1029.22z"
		/>
</g>
<g id="I_00000142141605342937180730000017553566619469870987_">
	<rect id="I" x="1447.17" y="684.94" class="st4" width="165.83" height="482.98"/>
</g>
</svg>
