<?xml version="1.0" encoding="utf-8"?>
<!-- Generator: Adobe Illustrator 26.0.2, SVG Export Plug-In . SVG Version: 6.00 Build 0)  -->
<svg version="1.1" xmlns="http://www.w3.org/2000/svg" xmlns:xlink="http://www.w3.org/1999/xlink" x="0px" y="0px"
	 viewBox="0 0 1880 1880" style="enable-background:new 0 0 1880 1880;" xml:space="preserve">
<style type="text/css">
	.st0{display:none;}
	.st1{fill:none;stroke:#3B43F2;stroke-width:18.3659;stroke-miterlimit:10;}
</style>
<g id="Layer_1" class="st0">
</g>
<g id="Layer_2">
	<path class="st1" d="M0,1030.67c68.45,0,46.75-91.83,110.2-90.16c63.45,1.67,53.43,90.16,116.87,90.16s61.78-91.87,121.88-90.18
		s48.42,90.18,113.53,90.18s56.77-91.92,118.54-90.21s56.77,86.87,113.53,90.21s66.79-90.3,123.55-90.23
		c56.77,0.07,60.11,88.73,110.2,90.32c50.09,1.58,68.45-90.39,121.88-90.32c53.43,0.07,65.12,90.44,116.87,90.34
		c51.76-0.11,66.79-92.08,115.2-90.34s53.43,92.11,111.86,90.34c58.44-1.78,51.76-92.12,120.21-90.36s55.1,90.52,123.55,90.39
		c68.45-0.13,46.75-90.53,113.53-90.41s51.76,88.88,118.54,90.41"/>
	<path class="st1" d="M10.02,1178.7c68.45,0,46.75-91.83,110.2-90.16c63.45,1.67,53.43,90.16,116.87,90.16s61.78-91.87,121.88-90.18
		s48.42,90.18,113.53,90.18s56.77-91.92,118.54-90.21s56.77,86.87,113.53,90.21s66.79-90.3,123.55-90.23
		c56.77,0.07,60.11,88.73,110.2,90.32s68.45-90.39,121.88-90.32c53.43,0.07,65.12,90.44,116.87,90.34s66.79-92.08,115.2-90.34
		s53.43,92.11,111.86,90.34c58.44-1.78,51.76-92.12,120.21-90.36c68.45,1.76,55.1,90.52,123.55,90.39s46.75-90.53,113.53-90.41
		c66.79,0.12,51.76,88.88,118.54,90.41"/>
	<path class="st1" d="M5.01,1310.57c68.45,0,46.75-91.83,110.2-90.16c63.45,1.67,53.43,90.16,116.87,90.16s61.78-91.87,121.88-90.18
		s48.42,90.18,113.53,90.18s56.77-91.92,118.54-90.21s56.77,86.87,113.53,90.21c56.77,3.34,66.79-90.3,123.55-90.23
		s60.11,88.73,110.2,90.32s68.45-90.39,121.88-90.32c53.43,0.07,65.12,90.44,116.87,90.34s66.79-92.08,115.2-90.34
		c48.42,1.74,53.43,92.11,111.86,90.34c58.44-1.78,51.76-92.12,120.21-90.36c68.45,1.76,55.1,90.52,123.55,90.39
		s46.75-90.53,113.53-90.41c66.79,0.12,51.76,88.88,118.54,90.41"/>
</g>
</svg>
