<?xml version="1.0" encoding="utf-8"?>
<!-- Generator: Adobe Illustrator 26.0.2, SVG Export Plug-In . SVG Version: 6.00 Build 0)  -->
<svg version="1.1" xmlns="http://www.w3.org/2000/svg" xmlns:xlink="http://www.w3.org/1999/xlink" x="0px" y="0px"
	 viewBox="0 0 1880 1880" style="enable-background:new 0 0 1880 1880;" xml:space="preserve">
<style type="text/css">
	.st0{fill:#FF6400;}
</style>
<g id="Layer_1">
</g>
<g id="Layer_2">
	<polygon class="st0" points="129.88,772.29 129.88,825.38 171.33,797.97 	"/>
	<polygon class="st0" points="35.97,772.29 35.97,825.38 77.42,797.97 	"/>
	<polygon class="st0" points="221.08,772.29 221.08,825.38 262.53,797.97 	"/>
	<polygon class="st0" points="313.93,772.29 313.93,825.38 355.38,797.97 	"/>
	<polygon class="st0" points="406.78,772.29 406.78,825.38 448.23,797.97 	"/>
	<polygon class="st0" points="502.12,772.29 502.12,825.38 543.57,797.97 	"/>
	<polygon class="st0" points="594.97,772.29 594.97,825.38 636.42,797.97 	"/>
	<polygon class="st0" points="688.65,772.29 688.65,825.38 730.11,797.97 	"/>
	<polygon class="st0" points="783.16,772.29 783.16,825.38 824.62,797.97 	"/>
	<polygon class="st0" points="875.19,772.29 875.19,825.38 916.64,797.97 	"/>
	<polygon class="st0" points="968.45,772.29 968.45,825.38 1009.91,797.97 	"/>
	<polygon class="st0" points="1061.72,772.29 1061.72,825.38 1103.17,797.97 	"/>
	<polygon class="st0" points="1154.99,772.29 1154.99,825.38 1196.44,797.97 	"/>
	<polygon class="st0" points="1248.26,772.29 1248.26,825.38 1289.71,797.97 	"/>
	<polygon class="st0" points="1340.94,772.29 1340.94,825.38 1382.39,797.97 	"/>
	<polygon class="st0" points="1434.1,772.29 1434.1,825.38 1475.55,797.97 	"/>
	<polygon class="st0" points="1527.73,772.29 1527.73,825.38 1569.18,797.97 	"/>
	<polygon class="st0" points="1619.47,772.29 1619.47,825.38 1660.92,797.97 	"/>
	<polygon class="st0" points="1714.52,772.29 1714.52,825.38 1755.97,797.97 	"/>
	<polygon class="st0" points="1806.27,772.29 1806.27,825.38 1847.72,797.97 	"/>
</g>
</svg>
